<?xml version="1.0" standalone="no"?>
<!DOCTYPE svg PUBLIC "-//W3C//DTD SVG 20010904//EN"
 "http://www.w3.org/TR/2001/REC-SVG-20010904/DTD/svg10.dtd">
<svg version="1.0" xmlns="http://www.w3.org/2000/svg"
 width="32.000000pt" height="32.000000pt" viewBox="0 0 32.000000 32.000000"
 preserveAspectRatio="xMidYMid meet">

<g transform="translate(0.000000,32.000000) scale(0.100000,-0.100000)"
fill="#000000" stroke="none">
<path d="M60 280 c0 -22 5 -40 10 -40 6 0 10 -35 10 -85 0 -46 5 -95 11 -109
16 -35 61 -52 98 -37 40 17 51 49 51 146 0 50 4 85 10 85 6 0 10 18 10 40 l0
40 -100 0 -100 0 0 -40z m90 -70 c0 -25 -4 -30 -25 -30 -21 0 -25 5 -25 30 0
25 4 30 25 30 21 0 25 -5 25 -30z m70 0 c0 -25 -4 -30 -25 -30 -21 0 -25 5
-25 30 0 25 4 30 25 30 21 0 25 -5 25 -30z m-70 -80 c0 -25 -4 -30 -25 -30
-21 0 -25 5 -25 30 0 25 4 30 25 30 21 0 25 -5 25 -30z m70 0 c0 -25 -4 -30
-25 -30 -21 0 -25 5 -25 30 0 25 4 30 25 30 21 0 25 -5 25 -30z m-70 -80 c0
-33 -11 -38 -34 -14 -24 23 -20 44 9 44 21 0 25 -5 25 -30z m70 16 c0 -16 -26
-46 -41 -46 -5 0 -9 14 -9 30 0 25 4 30 25 30 15 0 25 -6 25 -14z"/>
</g>
</svg>
